<?xml version="1.0" encoding="utf-8"?>
<!-- Generator: Adobe Illustrator 24.3.0, SVG Export Plug-In . SVG Version: 6.00 Build 0)  -->
<svg version="1.1" id="Layer_1" xmlns="http://www.w3.org/2000/svg" xmlns:xlink="http://www.w3.org/1999/xlink" x="0px" y="0px"
	 viewBox="0 0 64 64" style="enable-background:new 0 0 64 64;" xml:space="preserve">
<style type="text/css">
	.st0{fill:#09090B;}
	.st1{fill:#FFFFFF;}
</style>
<path class="st0" d="M64,32c0,17.7-14.3,32-32,32h0C14.3,64,0,49.7,0,32v0C0,14.3,14.3,0,32,0h0C49.7,0,64,14.3,64,32L64,32z"/>
<path class="st1" d="M39.7,31.3h-4.8V50h-7.2V31.3h-4.3v-5.8h4.3V22c0-5.1,2.1-8,8.1-8h4.9v5.8h-3.3c-2.3,0-2.5,0.9-2.5,2.5v3.3h5.8
	L39.7,31.3z"/>
</svg>
