<?xml version="1.0" encoding="utf-8"?>
<!-- Generator: Adobe Illustrator 24.3.0, SVG Export Plug-In . SVG Version: 6.00 Build 0)  -->
<svg version="1.1" id="Layer_1" xmlns="http://www.w3.org/2000/svg" xmlns:xlink="http://www.w3.org/1999/xlink" x="0px" y="0px"
	 viewBox="0 0 64 64" style="enable-background:new 0 0 64 64;" xml:space="preserve">
<style type="text/css">
	.st0{fill:#09090B;}
	.st1{fill:#FFFFFF;}
</style>
<g>
	<circle class="st0" cx="32" cy="32" r="32"/>
</g>
<path class="st1" d="M32.1,42.8c-5.9,0-10.8-4.8-10.8-10.8s4.8-10.8,10.8-10.8s10.8,4.8,10.8,10.8S38.1,42.8,32.1,42.8z M32.1,24.4
	c-4.2,0-7.7,3.5-7.7,7.7s3.5,7.7,7.7,7.7s7.7-3.5,7.7-7.7S36.4,24.4,32.1,24.4z"/>
<circle class="st1" cx="43.7" cy="20.5" r="2.3"/>
<path class="st1" d="M41.4,52.1H22.9c-5.9,0-10.8-4.8-10.8-10.8V22.8c0-5.9,4.8-10.8,10.8-10.8h18.5c5.9,0,10.8,4.8,10.8,10.8v18.5
	C52.1,47.2,47.3,52.1,41.4,52.1z M22.9,15.1c-4.2,0-7.7,3.5-7.7,7.7v18.5c0,4.2,3.5,7.7,7.7,7.7h18.5c4.2,0,7.7-3.5,7.7-7.7V22.8
	c0-4.2-3.5-7.7-7.7-7.7H22.9z"/>
</svg>
