<?xml version="1.0" encoding="utf-8"?>
<!-- Generator: Adobe Illustrator 24.3.0, SVG Export Plug-In . SVG Version: 6.00 Build 0)  -->
<svg version="1.1" id="Layer_1" xmlns="http://www.w3.org/2000/svg" xmlns:xlink="http://www.w3.org/1999/xlink" x="0px" y="0px"
	 viewBox="0 0 24 24" style="enable-background:new 0 0 24 24;" xml:space="preserve">
<style type="text/css">
	.st0{fill:#EA501F;}
</style>
<path class="st0" d="M7.3,20.5c-0.5,0-0.9-0.2-1.3-0.5c-0.4-0.4-0.5-0.8-0.5-1.3V6h-1V4.5H9V3.6h6v0.9h4.5V6h-1v12.7
	c0,0.5-0.2,0.9-0.5,1.3s-0.8,0.5-1.3,0.5H7.3z M17,6H7v12.7c0,0.1,0,0.2,0.1,0.2C7.1,19,7.2,19,7.3,19h9.4c0.1,0,0.1,0,0.2-0.1
	c0.1-0.1,0.1-0.1,0.1-0.2V6z M9.4,17h1.5V8H9.4V17z M13.1,17h1.5V8h-1.5V17z M7,6v13V6z"/>
</svg>
