<svg id="Layer_1" data-name="Layer 1" xmlns="http://www.w3.org/2000/svg" viewBox="0 0 27.2 24"><path d="M72.85,53.11H54.12l-.87-4.8h-6.9v1.54H52L52.71,54l.13.69.73,4.06.13.7.75,4.13.12.7.57,3.09H72V65.79H56.42l-.28-1.55H71.88l.11-.71.67-4.12.12-.7.66-4.06.11-.7v-.72Zm-7.16,1.54v3.22H60.84V54.65Zm-6.39,0v3.22H55l-.58-3.22ZM55.86,62.7l-.6-3.29h4V62.7Zm5,0V59.41h4.85V62.7Zm9.73,0H67.23V59.41H71.1Zm.78-4.83H67.23V54.65h4.65Z" transform="translate(-46.35 -48.31)"/><path d="M58.41,72.31a2.47,2.47,0,1,1,2.37-2.47A2.42,2.42,0,0,1,58.41,72.31Zm0-3.4a.94.94,0,1,0,.83.93A.89.89,0,0,0,58.41,68.91Z" transform="translate(-46.35 -48.31)"/><path d="M68.05,72.31a2.47,2.47,0,1,1,2.37-2.47A2.43,2.43,0,0,1,68.05,72.31Zm0-3.4a.94.94,0,1,0,.83.93A.89.89,0,0,0,68.05,68.91Z" transform="translate(-46.35 -48.31)"/></svg>