<svg id="Layer_1" data-name="Layer 1" xmlns="http://www.w3.org/2000/svg" viewBox="0 0 187.39 24"><path d="M2871.27,1298.3c.17-.46.3-.85.44-1.24l4.47-12.27.11-.27a1.14,1.14,0,0,1,1.16-.78h17.1c.78,0,1.56,0,2.34,0a1.35,1.35,0,0,1,1.4.94l1.47,3.62,3.66,8.83c.14.34.3.67.46,1,.15-.07.15-.2.19-.31q1.66-4.53,3.34-9.07c.49-1.32,1-2.65,1.44-4l.09-.24a1.13,1.13,0,0,1,1.17-.8c1.24,0,2.49,0,3.73,0h5.75l0,0v0a.17.17,0,0,1,0,.07q-2.64,7.21-5.3,14.46l-.45,0c-5.45,0-10.89,0-16.34,0l-4.45,0h-.22a1.37,1.37,0,0,1-1.53-1l-2.76-6.76c-.26-.64-.53-1.28-.8-1.92l-.15-.3c-.07.16-.12.26-.16.37l-3.21,8.7c0,.11-.08.23-.13.34a.84.84,0,0,1-.89.6l-2,0h-9.13C2871.82,1298.37,2871.58,1298.33,2871.27,1298.3Z" transform="translate(-2789.68 -1283.36)"/><path d="M2817.62,1284.12l-.91,1.89-3.75,7.72a1.6,1.6,0,0,0-.13.3s0,.12,0,.23c.33-.24.61-.43.89-.65q6.1-4.63,12.21-9.3a2.63,2.63,0,0,1,1.71-.58c2.23,0,4.46,0,6.69,0,2.07,0,4.14.06,6.21.1q.86,0,1.71.06l.16,0c-5,3.84-10,7.66-15,11.48l1.53,3h-.48c-3.85,0-7.7,0-11.55,0-.77,0-1.55,0-2.33,0a6.62,6.62,0,0,1-.77,0,1.63,1.63,0,0,1-1.41-1.05,8.78,8.78,0,0,0-.49-.9,2.11,2.11,0,0,0-.27-.3c-.06.24-.09.41-.14.58a2,2,0,0,1-1.85,1.65,17.74,17.74,0,0,1-1.79.06c-1.13,0-2.26-.05-3.39-.05-3.28,0-6.56,0-9.83,0h-.5a6.59,6.59,0,0,1,.3-.86c1.33-2.71,2.68-5.41,4-8.12l2.22-4.48c.06-.12.12-.24.19-.36a1,1,0,0,1,1-.53h15C2817.05,1284,2817.3,1284.09,2817.62,1284.12Z" transform="translate(-2789.68 -1283.36)"/><path d="M2855.92,1292.62h12c0,.1,0,.15-.05.2-.56,1.19-1.13,2.38-1.68,3.57a1,1,0,0,1-.74.57,3.23,3.23,0,0,1-.69.07l-8,0c-.67,0-1.34,0-2,0a1.25,1.25,0,0,0-1.26.75,1,1,0,0,1-.93.58l-11.7,0-.29,0c.06-.14.1-.27.15-.38q1.79-3.9,3.58-7.8,1.28-2.81,2.57-5.61a1.68,1.68,0,0,1,2-1.2h23.88a1.83,1.83,0,0,1-.08.27c-.63,1.29-1.27,2.58-1.89,3.87a.81.81,0,0,1-.72.52l-.37,0h-8.44l-2.08,0a1.52,1.52,0,0,0-.94.21,1.8,1.8,0,0,0-.49.54c-.62,1.22-1.23,2.45-1.84,3.68A.37.37,0,0,0,2855.92,1292.62Z" transform="translate(-2789.68 -1283.36)"/><path d="M2836.51,1307.19l.16-.38c.85-1.86,1.71-3.71,2.56-5.57a.43.43,0,0,1,.46-.31H2852l-.61,1.5H2865c0,.09,0,.15-.06.2-.64,1.32-1.29,2.62-1.92,3.94a.88.88,0,0,1-.73.53,4.62,4.62,0,0,1-.65.05l-24.7,0Z" transform="translate(-2789.68 -1283.36)"/><path d="M2892.89,1301h20.43c0,.11,0,.2-.07.28-.65,1.78-1.32,3.56-2,5.34a.88.88,0,0,1-.78.62l-.43,0h-13.77a2,2,0,0,1-.54-.06.71.71,0,0,1-.5-.44l-2.34-5.62A.58.58,0,0,1,2892.89,1301Z" transform="translate(-2789.68 -1283.36)"/><path d="M2809.37,1301l-.22.48-1.74,3.62c-.12.25-.2.51-.32.77a2.28,2.28,0,0,1-2.19,1.48c-.79,0-1.58,0-2.37,0l-3.58,0h-2.88l-6,0h-.44a1.15,1.15,0,0,1,.08-.26l2.67-5.39.12-.22a.94.94,0,0,1,.89-.53h13.12l2.33,0A3.46,3.46,0,0,1,2809.37,1301Z" transform="translate(-2789.68 -1283.36)"/><path d="M2834,1307.32h-3.61l-7.92,0-3.36,0h-.22a1.37,1.37,0,0,1-1.3-.81c-.93-1.75-1.92-3.48-2.88-5.21,0-.09-.09-.19-.15-.31l.24,0,.84,0h8.7l5,0h.29a1.38,1.38,0,0,1,1.31.78c.34.65.69,1.31,1,2,.6,1.1,1.21,2.19,1.82,3.29Z" transform="translate(-2789.68 -1283.36)"/><path d="M2868,1307.28l2.31-6.33h12.67c0,.11-.05.21-.08.29l-2,5.34a.86.86,0,0,1-1,.69H2868Z" transform="translate(-2789.68 -1283.36)"/><path d="M2960.81,1307.16h-5.57l-.95-6.47c-.39.42-.72.77-1,1.14a.91.91,0,0,0-.13.37c-.42,1.58-.83,3.16-1.25,4.73a1.11,1.11,0,0,1-.07.22h-5.19l4.4-17.27h5.21c-.58,2.35-1.2,4.65-1.8,7a.56.56,0,0,0,.13-.11.47.47,0,0,0,.06-.09l4.61-6.54a.65.65,0,0,1,.62-.33h5l.45,0-.31.38q-3.12,3.57-6.26,7.14a.66.66,0,0,0-.15.66c.73,2.9,1.44,5.8,2.16,8.71C2960.76,1306.88,2960.78,1307,2960.81,1307.16Zm-9.29-.37c.05-.15.09-.27.12-.38.39-1.48.78-3,1.16-4.45a1.06,1.06,0,0,1,.27-.5c.41-.44.81-.88,1.22-1.31a3.33,3.33,0,0,1,.26-.24c.34,2.32.67,4.59,1,6.9h2.38c.8,0,1.59,0,2.41,0,0-.19-.08-.33-.11-.47-.7-2.81-1.39-5.62-2.09-8.43a.5.5,0,0,1,.12-.52c.39-.42.76-.86,1.13-1.29l4.81-5.5c.08-.09.16-.19.28-.35H2964c-1.34,0-2.68,0-4,0a.63.63,0,0,0-.59.32c-1.4,2-2.82,4-4.23,6-.28.4-.54.81-.8,1.22s-.2.34-.63.23c.66-2.57,1.32-5.14,2-7.74h-4.45q-2.07,8.15-4.15,16.27a1.52,1.52,0,0,0,0,.21v0l0,0Z" transform="translate(-2789.68 -1283.36)"/><path d="M2966.72,1289.87h10.35l-1,3.6h-4.9l-.84,3a9.44,9.44,0,0,0,1.18,0h3.59c-.27,1.18-.59,2.31-.89,3.48h-4.73c-.32,1.2-.64,2.37-1,3.59H2974l-1,3.63h-10.72Q2964.53,1298.51,2966.72,1289.87Zm-3.93,16.92h10l.76-2.9h-4.07a12.45,12.45,0,0,1-1.36,0c.4-1.45.78-2.86,1.17-4.29H2974l.71-2.76h-4.8c.35-1.26.69-2.47,1-3.7h4.9l.76-2.87H2967C2965.6,1295.75,2964.2,1301.25,2962.79,1306.79Z" transform="translate(-2789.68 -1283.36)"/><path d="M2921.5,1307c1.44-5.65,2.88-11.27,4.32-16.91.61-.08,1.21-.16,1.82-.21a30,30,0,0,1,4.45-.08,8.94,8.94,0,0,1,3.33.73,4.59,4.59,0,0,1,1.51,1.06,3.56,3.56,0,0,1,.32,4.21,5.66,5.66,0,0,1-2.51,2.11l-.83.34.36.17a3.59,3.59,0,0,1,2.13,2.65,3.65,3.65,0,0,1-.56,2.82,6.07,6.07,0,0,1-2.55,2.13,11.93,11.93,0,0,1-3.6,1,24,24,0,0,1-3.39.21,38.39,38.39,0,0,1-4.55-.2Zm.47-.32.45.06,1.9.09a29.74,29.74,0,0,0,5.25-.16,12.12,12.12,0,0,0,3.34-.88,6.07,6.07,0,0,0,2.49-1.91,3.36,3.36,0,0,0-1.6-5.25l-.62-.21v-.35c.38-.13.74-.23,1.09-.37a5.51,5.51,0,0,0,2.6-2,3.14,3.14,0,0,0-.82-4.39,5.73,5.73,0,0,0-.59-.35,8,8,0,0,0-3.35-.8,31.26,31.26,0,0,0-5.72.21c-.19,0-.32.08-.34.29a3.45,3.45,0,0,1-.12.46q-1.79,7-3.56,14C2922.23,1305.63,2922.11,1306.15,2922,1306.7Z" transform="translate(-2789.68 -1283.36)"/><path d="M2943,1307.15h-5.34c1.47-5.78,2.94-11.52,4.4-17.27h5.35C2945.93,1295.65,2944.46,1301.39,2943,1307.15Zm-.65-16.91q-2.1,8.25-4.22,16.55h4.55c.22-.56,4.2-16.27,4.19-16.55Z" transform="translate(-2789.68 -1283.36)"/><path d="M2926.86,1304.36c.46-1.73.9-3.41,1.34-5.09a5.58,5.58,0,0,1,1.87.13,2,2,0,0,1,1.51,2.18,2.63,2.63,0,0,1-1.47,2.31,3.79,3.79,0,0,1-1.64.47C2928,1304.38,2927.43,1304.36,2926.86,1304.36Zm1.63-4.73c-.38,1.45-.76,2.89-1.15,4.35.46,0,.85,0,1.25,0a3.39,3.39,0,0,0,1.51-.51,2.28,2.28,0,0,0,1-2.55,1.51,1.51,0,0,0-1-1.1A4.06,4.06,0,0,0,2928.49,1299.63Z" transform="translate(-2789.68 -1283.36)"/><path d="M2928.81,1296.92c.15-.59.27-1.1.39-1.6.2-.83.41-1.65.6-2.48,0-.21.14-.33.36-.33a12.69,12.69,0,0,1,1.38,0,1.64,1.64,0,0,1,1.47,1.53,2.32,2.32,0,0,1-1.43,2.47,4.36,4.36,0,0,1-1.19.32A15.59,15.59,0,0,1,2928.81,1296.92Zm1.36-4-.88,3.63a4.48,4.48,0,0,0,2.25-.4,2,2,0,0,0,1.11-2,1.34,1.34,0,0,0-1.1-1.25A3.57,3.57,0,0,0,2930.17,1292.9Z" transform="translate(-2789.68 -1283.36)"/></svg>